<svg width="37" height="37" viewBox="0 0 37 37" fill="none" xmlns="http://www.w3.org/2000/svg">
<g clip-path="url(#clip0)">
<path d="M23.8412 0.213692C23.6715 0.0350039 23.4389 -0.0722656 23.1979 -0.0722656H8.76419C6.1008 -0.0722656 3.90234 2.11744 3.90234 4.78055V32.0747C3.90234 34.7381 6.1008 36.9278 8.76419 36.9278H28.3544C31.0178 36.9278 33.2163 34.7381 33.2163 32.0747V10.402C33.2163 10.1697 33.109 9.94642 32.9571 9.77648L23.8412 0.213692ZM24.1003 3.08259L30.2045 9.49053H26.2364C25.0567 9.49053 24.1003 8.54317 24.1003 7.36349V3.08259ZM28.3544 35.1404H8.76419C7.09305 35.1404 5.68979 33.7552 5.68979 32.0747V4.78055C5.68979 3.1094 7.08401 1.71518 8.76419 1.71518H22.3129V7.36349C22.3129 9.53513 24.0648 11.278 26.2364 11.278H31.4288V32.0747C31.4288 33.7552 30.0346 35.1404 28.3544 35.1404Z" fill="white"/>
<path d="M25.9144 28.9736H11.2038C10.7123 28.9736 10.3101 29.3756 10.3101 29.8674C10.3101 30.3588 10.7123 30.7611 11.2038 30.7611H25.9234C26.4149 30.7611 26.8171 30.3588 26.8171 29.8674C26.8171 29.3756 26.4149 28.9736 25.9144 28.9736Z" fill="#01AB96"/>
<path d="M17.907 25.765C18.0769 25.9437 18.3092 26.051 18.5593 26.051C18.8097 26.051 19.0421 25.9437 19.2117 25.765L24.449 20.1436C24.7886 19.7859 24.7618 19.214 24.4044 18.8834C24.0467 18.5438 23.4748 18.5704 23.1443 18.928L19.4531 22.8871V13.1279C19.4531 12.6361 19.0508 12.2341 18.5593 12.2341C18.0679 12.2341 17.6656 12.6361 17.6656 13.1279V22.8871L13.9834 18.928C13.6439 18.5707 13.0807 18.5438 12.7233 18.8834C12.3659 19.223 12.3391 19.7862 12.6787 20.1436L17.907 25.765Z" fill="#01AB96"/>
</g>
<defs>
<clipPath id="clip0">
<rect width="37" height="37" fill="white"/>
</clipPath>
</defs>
</svg>
