<svg width="40" height="40" viewBox="0 0 40 40" fill="none" xmlns="http://www.w3.org/2000/svg">
<path fill-rule="evenodd" clip-rule="evenodd" d="M20 0C31.0466 0 40 8.95342 40 20C40 29.9836 32.6904 38.2575 23.1233 39.7589L23.1233 39.7587L23.1233 25.7863H27.7918L28.6795 20H28.6685L28.6685 19.9998H23.1342V16.2521C23.1342 14.674 23.9014 13.1288 26.389 13.1288H28.9096V8.20822C28.9096 8.20822 26.8682 7.85659 24.7956 7.81726C24.6692 7.8148 24.5427 7.81349 24.4164 7.81349C19.8466 7.81349 16.8658 10.5861 16.8658 15.5943V19.9998H11.7918V25.7861H11.8027V25.7863H16.8767V39.7589C7.30959 38.2575 0 29.9836 0 20C0 8.95342 8.95342 0 20 0Z" fill="white"/>
</svg>
