<svg width="56" height="63" viewBox="0 0 56 63" fill="none" xmlns="http://www.w3.org/2000/svg">
<path d="M0 7.97436V54.7599L55.6633 62.7735V0L0 7.97436Z" fill="#00A696"/>
<path d="M28.8336 44.5069C29.58 43.5249 29.7764 42.5035 29.8157 39.6752V37.9467C29.8157 37.5146 29.8157 37.004 29.8157 36.3754C29.8157 32.2901 29.6979 31.0723 28.7944 30.3652C28.4408 30.0902 28.0087 29.9331 27.5373 29.9331C27.1445 29.9331 26.7517 30.0117 26.3981 30.1688C23.0198 31.4258 23.0591 35.1184 23.0591 35.1577C23.0591 35.4327 23.0591 38.6145 23.0591 38.9288C23.0591 43.0142 23.1769 44.232 24.0804 45.1747C24.709 45.8033 25.5732 46.0782 26.4374 45.9211C27.4195 45.8033 28.2837 45.2926 28.8336 44.5069ZM28.0873 37.3182C28.0873 37.3968 28.0873 39.3216 28.0873 39.3216C28.048 41.9143 27.9301 42.8571 27.5373 43.4856C27.3016 43.8784 26.9088 44.1141 26.4767 44.1534C26.3981 44.1534 26.3196 44.1534 26.241 44.1534C25.9267 44.1534 25.6125 44.0355 25.4161 43.7606C24.9447 43.1713 24.8661 42.0321 24.8661 38.6538V37.9075C24.8661 34.8041 24.9447 33.6257 25.4161 32.8007C25.6517 32.3686 26.0446 32.0544 26.516 31.858C26.8695 31.6615 27.2623 31.7401 27.5766 31.9758C28.048 32.4865 28.1265 33.7042 28.1265 36.9254L28.0873 37.3182Z" fill="white"/>
<path d="M10.2529 45.8026C10.6065 45.9205 10.96 45.9597 11.3136 45.9597C11.9814 45.999 12.6099 45.7633 13.1206 45.2919C13.6705 44.742 13.7491 43.9956 13.7491 43.0528C13.7491 43.0136 13.7491 43.0136 13.7491 43.0136C13.7491 42.9743 13.7491 42.935 13.7491 42.1101C13.7491 41.2851 13.5527 40.6959 13.1598 40.3816C12.7277 40.0674 12.1385 39.9495 11.5885 40.0674C11.5885 40.0674 11.3136 40.1067 10.8815 40.1852C10.7636 40.1852 10.6458 40.1852 10.5672 40.1067C10.2922 39.871 10.3315 39.2032 10.3315 38.8889C10.3315 38.8496 10.3315 38.771 10.3315 38.771C10.3315 38.2211 10.4494 37.4747 11.3136 37.2783C11.51 37.1997 11.7457 37.239 11.9028 37.3962C12.0599 37.5533 12.1385 37.8283 12.1385 38.3389V38.6532L13.7098 38.3389V38.1818C13.7098 37.4354 13.6312 36.6105 12.9634 36.0998C12.4528 35.7463 11.785 35.6284 11.1564 35.7856C10.5279 35.9034 9.93868 36.2177 9.50657 36.6891C8.95662 37.3176 8.68164 38.1032 8.72092 38.9282C8.72092 40.1852 8.79949 41.0101 9.31016 41.403C9.70299 41.7172 10.3315 41.7565 11.3529 41.5601C11.5493 41.5208 11.7457 41.5601 11.9028 41.678C12.1385 41.8744 12.1385 42.3065 12.1385 42.7779C12.1385 43.5242 12.0599 43.9171 11.8635 44.1528C11.6671 44.3492 11.3921 44.467 11.1172 44.467C10.8815 44.5063 10.6851 44.4277 10.4886 44.2706C10.3315 44.1135 10.2529 43.8778 10.2529 43.21V42.8171L8.68164 43.1314C8.68164 44.0742 8.79949 44.7813 9.38873 45.3312C9.6637 45.5276 9.93868 45.6848 10.2529 45.8026Z" fill="white"/>
<path d="M41.1289 27.3803L41.1682 27.341L47.2177 25.2198V22.9414L39.2041 25.809V45.7646H47.2177V43.8004H41.1289V39.5579V36.1796H41.1682L46.4321 35.0404V32.8406L41.1289 33.9798V27.3803Z" fill="white"/>
<path d="M10.8811 33.6256V18.4233L10.999 18.384L14.1416 25.4548L15.7914 25.062L19.0126 18.2269L19.1305 18.2661V30.6794L21.1339 29.9723V12.3345H19.4447L15.1629 22.4301L14.8094 22.5086L10.5669 12.3345H8.91699V34.2934L10.8811 33.6256Z" fill="white"/>
<path d="M29.9333 26.869V25.062L25.1408 26.6726V21.4087L29.2262 20.466V18.5804L25.1408 19.4053V14.1022H29.9333V12.3345H23.0981V29.2652L29.9333 26.869Z" fill="white"/>
<path d="M35.708 24.8259C36.7294 24.3152 37.9078 23.2153 37.9078 20.2691V16.2623C37.79 14.7302 37.5543 13.9446 36.9651 13.3161C36.3365 12.6483 35.4723 12.2947 34.5688 12.334H31.3477V26.3579L35.708 24.8259ZM33.1547 14.1017H33.1939C34.6081 14.0624 35.3152 14.2196 35.708 14.6517C36.2187 15.1624 36.2187 16.1051 36.2187 17.6764C36.2187 17.9514 36.2187 18.2264 36.2187 18.5799C36.2187 22.0368 36.1008 22.9796 33.2332 23.9616L33.1547 24.0009V14.1017Z" fill="white"/>
<path d="M43.093 22.1944L43.7215 19.1304L45.5678 18.659L46.0785 21.1338L47.3748 20.6624L45.5678 12.3345H43.8001L41.4824 22.7836L43.093 22.1944ZM44.625 14.7307H44.7822V14.77L45.3321 17.3626L44.0358 17.7162L44.625 14.7307Z" fill="white"/>
<path d="M19.8772 41.7175C19.8772 43.171 19.3273 44.1138 18.3845 44.2316C17.3631 44.3887 16.8132 43.9566 16.8132 39.3606C16.8132 38.0642 16.9703 36.3358 17.3238 35.7073C17.5595 35.2752 17.9524 34.9609 18.4238 34.8038C18.738 34.6467 19.1308 34.686 19.4451 34.9216C19.7986 35.1966 19.8379 36.7679 19.8379 37.2L21.095 36.9251L21.5664 36.8072V35.7466C21.5664 34.5288 21.2128 33.6646 20.5843 33.2718C20.3093 33.0754 19.9558 32.9575 19.6022 32.9575C19.1701 32.9575 18.7773 33.0361 18.3845 33.1932C15.674 34.136 15.2026 36.1394 15.124 38.1821V39.4391V41.2461C15.124 44.7816 15.6347 46.3529 18.4238 45.9208C20.0736 45.6458 21.5271 45.0958 21.5271 40.8533C21.5271 40.814 21.5271 40.4998 21.5271 40.3819L19.8379 40.7355C19.8772 41.0104 19.8772 41.6782 19.8772 41.7175Z" fill="white"/>
<path d="M40.7361 12.3345H39.2041V23.5693L40.7361 23.0193V12.3345Z" fill="white"/>
<path d="M37.0043 27.4182C36.4937 27.0646 35.6687 27.0646 34.5688 27.4574L33.1547 27.9681L31.3477 28.5966V45.7631H33.1547V39.8314V37.7887L33.3511 37.7495C35.2759 37.3566 37.8686 36.846 37.9078 33.6248V31.9356C37.9078 31.3071 37.9078 30.3643 37.9078 30.3643C37.9078 28.8323 37.6329 27.8503 37.0043 27.4182ZM36.258 33.3891C36.258 34.2926 35.5902 35.0782 34.5295 35.3139L33.1547 35.6282V29.893L34.4903 29.4216C34.8831 29.2252 35.3545 29.2252 35.7866 29.4608C36.1401 29.6965 36.2973 30.1679 36.2973 30.7965C36.258 30.7572 36.258 33.1927 36.258 33.3891Z" fill="white"/>
<path d="M8.87793 52.0513V48.8301H10.0171C10.5278 48.7908 10.9599 49.2229 10.9599 49.6943C10.9992 50.205 10.5671 50.6371 10.0957 50.6371C10.0564 50.6371 10.0564 50.6371 10.0171 50.6371H9.31004V52.012H8.87793V52.0513ZM9.31004 50.2836H10.0564C10.3314 50.2836 10.5671 50.0086 10.5671 49.7336C10.5671 49.4586 10.3314 49.2229 10.0564 49.2229H9.31004V50.2836Z" fill="white"/>
<path d="M11.6275 50.4399C11.5882 50.0078 11.7454 49.5757 12.0596 49.2222C12.6096 48.6722 13.4738 48.6329 14.063 49.1829L14.1023 49.2222C14.3773 49.5364 14.5344 49.9685 14.5344 50.4399C14.5737 50.872 14.4166 51.3042 14.1023 51.6577C13.5524 52.2077 12.6489 52.2469 12.0989 51.697L12.0596 51.6577C11.7454 51.3042 11.5882 50.872 11.6275 50.4399ZM12.0203 50.4399C11.9811 50.7935 12.0989 51.1077 12.2953 51.3827C12.4917 51.5791 12.7667 51.697 13.0417 51.697C13.3167 51.697 13.5916 51.5791 13.7881 51.3827C14.1809 50.8328 14.1809 50.0864 13.7881 49.5364C13.5916 49.34 13.3167 49.2222 13.0417 49.2222C12.7667 49.2222 12.4917 49.34 12.2953 49.5364C12.0989 49.7721 12.0203 50.0864 12.0203 50.4399Z" fill="white"/>
<path d="M15.0059 48.8286H15.438L16.1058 51.4605L16.7736 49.1822H17.1271L17.7949 51.4605L18.4627 48.8286H18.8948L18.0306 52.0498H17.5985L16.9307 49.85L16.2629 52.0498H15.8308L15.0059 48.8286Z" fill="white"/>
<path d="M19.563 52.0498V48.8286H21.4093V49.2214H19.9558V50.1642H21.1343V50.557H19.9558V51.6962H21.4486V52.0891L19.563 52.0498Z" fill="white"/>
<path d="M22.2339 52.0495V48.8284H23.2945C23.7659 48.7498 24.1587 49.1034 24.2373 49.5355C24.2373 49.5747 24.2373 49.614 24.2373 49.6533C24.2766 50.0461 23.9623 50.3997 23.5695 50.4782L24.5123 52.0103H24.0409L23.0981 50.4782H22.6267V52.0103H22.2339V52.0495ZM22.6267 50.1247H23.2945C23.6481 50.1247 23.8052 49.9676 23.8052 49.6533C23.8052 49.3391 23.6481 49.1819 23.2945 49.1819H22.6267V50.1247Z" fill="white"/>
<path d="M25.1411 52.0498V48.8286H26.9874V49.2214H25.5339V50.1642H26.7124V50.557H25.5339V51.6962H27.0267V52.0891L25.1411 52.0498Z" fill="white"/>
<path d="M27.7729 52.0498V48.8286H28.6764C29.0693 48.8286 29.4621 48.9857 29.7371 49.2607C30.0513 49.575 30.1692 50.0071 30.1692 50.4392C30.2085 50.8713 30.0513 51.3034 29.7371 51.6177C29.4621 51.8926 29.0693 52.0498 28.6764 52.0498H27.7729ZM28.2051 51.657H28.5979C29.1871 51.657 29.6978 51.3427 29.6978 50.4392C29.6978 49.5357 29.1871 49.2214 28.5979 49.2214H28.2051V51.657Z" fill="white"/>
<path d="M32.4473 52.0506V48.8295H33.5472C33.9793 48.7509 34.3721 49.0652 34.4507 49.4973C34.4507 49.5365 34.4507 49.5758 34.4507 49.6544C34.4507 49.9294 34.3328 50.1651 34.0971 50.2829C34.4114 50.4008 34.6471 50.7543 34.6078 51.0686C34.6471 51.5792 34.2543 52.0113 33.7829 52.0113C33.7436 52.0113 33.665 52.0113 33.6257 52.0113H32.4473V52.0506ZM32.8401 50.1258H33.5079C33.8222 50.1258 34.0186 49.9687 34.0186 49.6544C34.0186 49.4187 33.8222 49.183 33.5865 49.183C33.5472 49.183 33.5472 49.183 33.5079 49.183H32.8401V50.1258ZM32.8401 51.6578H33.5079C33.94 51.6578 34.1364 51.4614 34.1364 51.1078C34.1364 50.715 33.94 50.5579 33.5079 50.5579H32.8401V51.6578Z" fill="white"/>
<path d="M34.9224 48.8286H35.3545L36.0616 50.2428L36.7686 48.8286H37.2007L36.258 50.6749V52.0498H35.8651V50.6749L34.9224 48.8286Z" fill="white"/>
<path d="M38.8896 49.2214V48.8286H41.168V49.2214H40.2253V52.0498H39.8324V49.2214H38.8896Z" fill="white"/>
<path d="M42.1504 52.0498V48.8286H42.6218L44.0752 51.3427V48.8286H44.4681V52.0498H43.9967L42.5432 49.5357V52.0498H42.1504Z" fill="white"/>
<path d="M45.6072 50.9893C45.7251 51.4214 45.9215 51.6964 46.3143 51.6964C46.4714 51.6964 46.6286 51.6571 46.7464 51.4999C46.825 51.3821 46.8643 51.2642 46.8643 51.1071C46.8643 50.8321 46.6286 50.675 46.275 50.4786C46.0786 50.4 45.8822 50.2822 45.7251 50.1643C45.5679 50.0072 45.4894 49.8108 45.4894 49.6144C45.4894 49.3787 45.5679 49.1823 45.7251 49.0251C45.8822 48.868 46.0786 48.7894 46.275 48.7894C46.6286 48.7502 46.9821 48.9859 47.1 49.3001L46.7464 49.4965C46.6679 49.3001 46.4714 49.143 46.2357 49.143C46.0393 49.143 45.8429 49.3394 45.8429 49.5358C45.8429 49.6929 45.9215 49.8108 46.0393 49.8894C46.1179 49.9286 46.1572 49.9679 46.2357 50.0072L46.4714 50.125C46.6286 50.2036 46.7464 50.2822 46.9036 50.3607C47.1392 50.5179 47.2571 50.7536 47.2571 51.0285C47.2571 51.2642 47.1785 51.4999 47.0214 51.6964C46.825 51.8928 46.5893 52.0106 46.3143 52.0106C46.0786 52.0106 45.8429 51.932 45.6465 51.7749C45.4501 51.6178 45.3323 51.3821 45.293 51.1464L45.6072 50.9893Z" fill="white"/>
</svg>
