<?xml version="1.0" standalone="no"?>
<!DOCTYPE svg PUBLIC "-//W3C//DTD SVG 20010904//EN"
 "http://www.w3.org/TR/2001/REC-SVG-20010904/DTD/svg10.dtd">
<svg version="1.0" xmlns="http://www.w3.org/2000/svg"
 width="576.000000pt" height="576.000000pt" viewBox="0 0 576.000000 576.000000"
 preserveAspectRatio="xMidYMid meet">
<metadata>
Created by potrace 1.11, written by Peter Selinger 2001-2013
</metadata>
<g transform="translate(0.000000,576.000000) scale(0.100000,-0.100000)"
fill="#000000" stroke="none">
<path d="M2885 5394 c-1386 -199 -2528 -363 -2537 -363 -17 -1 -18 -110 -18
-2151 0 -1785 2 -2150 13 -2150 15 0 5013 -717 5065 -726 l32 -6 0 2881 c0
2738 -1 2881 -17 2880 -10 -1 -1152 -165 -2538 -365z m-1391 -1232 c163 -395
194 -462 210 -460 15 2 61 101 215 466 l195 462 78 0 78 0 -2 -811 -3 -811
-79 -29 c-44 -16 -84 -29 -88 -29 -4 0 -8 254 -8 565 0 311 -4 565 -8 565 -5
0 -75 -138 -155 -307 l-147 -308 -72 -21 c-40 -12 -76 -20 -79 -18 -3 1 -68
144 -144 316 -76 172 -142 317 -147 322 -4 6 -8 -303 -8 -686 0 -383 -4 -699
-8 -702 -5 -3 -45 -18 -90 -35 l-82 -30 0 1010 0 1010 76 -3 76 -3 192 -463z
m1584 386 l-3 -83 -215 -2 -215 -2 -3 -241 -2 -240 22 5 c57 13 323 65 335 65
10 0 13 -20 13 -84 l0 -84 -132 -31 c-73 -17 -157 -36 -185 -43 l-53 -11 0
-239 c0 -131 3 -238 8 -238 4 0 102 32 217 70 115 39 211 70 213 70 1 0 2 -37
0 -82 l-3 -83 -287 -102 c-158 -56 -299 -105 -313 -109 l-25 -6 0 776 0 776
315 0 316 0 -3 -82z m518 67 c92 -27 158 -95 189 -195 14 -43 19 -105 22 -291
6 -256 -4 -374 -38 -464 -20 -54 -93 -145 -133 -167 -36 -20 -421 -155 -428
-151 -10 5 -11 1267 -1 1276 13 14 338 7 389 -8z m472 -477 l-3 -493 -60 -22
c-33 -12 -63 -22 -67 -22 -5 -1 -8 231 -8 514 l0 515 70 0 70 0 -2 -492z m446
475 c3 -10 39 -173 80 -363 42 -190 78 -355 81 -367 4 -18 -3 -24 -55 -41 -69
-24 -60 -34 -85 98 -9 47 -18 90 -20 97 -3 8 -27 6 -87 -10 l-83 -22 -28 -135
c-16 -74 -32 -138 -35 -142 -11 -12 -142 -58 -142 -51 0 9 188 865 201 916
l10 37 79 0 c66 0 79 -3 84 -17z m146 -1067 l0 -103 -280 -98 -280 -98 0 -297
c0 -163 2 -299 5 -302 4 -4 365 70 468 96 15 4 17 -6 17 -98 l0 -103 -177 -37
c-98 -21 -208 -44 -245 -52 l-68 -16 0 -349 0 -349 280 0 280 0 0 -90 0 -90
-365 0 -365 0 0 918 0 917 353 127 c193 69 358 127 365 127 9 1 12 -26 12
-103z m-960 -292 c91 -36 113 -132 108 -455 -3 -209 -5 -227 -27 -276 -27 -61
-103 -136 -164 -163 -37 -17 -141 -47 -219 -64 l-28 -6 0 -366 0 -365 -82 3
-83 3 0 113 c0 61 1 415 3 786 l2 673 163 56 c235 82 262 87 327 61z m-767
-258 c44 -19 83 -63 102 -116 27 -78 38 -285 32 -640 -7 -427 -19 -488 -119
-596 -61 -66 -135 -98 -228 -99 -159 0 -236 87 -260 296 -14 119 -13 725 1
791 16 73 62 172 105 225 94 114 270 181 367 139z m-736 -275 c76 -35 112
-118 113 -263 l0 -76 -69 -16 c-39 -9 -75 -16 -80 -16 -7 0 -11 24 -12 58 -1
87 -19 145 -50 159 -55 27 -152 -30 -182 -106 -29 -71 -40 -205 -34 -416 7
-283 28 -345 117 -345 44 0 96 32 121 75 20 33 39 135 39 205 l0 46 76 16 77
16 -6 -117 c-12 -260 -88 -362 -289 -392 -120 -18 -195 7 -239 78 -41 66 -50
134 -56 398 -6 278 5 380 50 479 48 105 150 186 278 220 72 20 96 19 146 -3z
m-700 -258 c52 -24 84 -80 90 -156 l6 -64 -39 -6 c-22 -4 -53 -9 -70 -13 -31
-6 -32 -5 -39 43 -9 60 -19 73 -60 73 -71 0 -110 -66 -103 -176 5 -87 17 -97
92 -83 70 13 126 5 162 -24 44 -35 54 -73 54 -220 0 -123 -2 -137 -26 -185
-21 -43 -34 -56 -80 -78 -44 -22 -69 -27 -125 -26 -133 0 -212 70 -225 197
l-6 61 59 12 c94 19 93 19 93 -39 0 -65 12 -87 54 -94 81 -16 122 47 114 174
-5 73 -24 96 -70 86 -49 -11 -133 -9 -164 3 -53 22 -68 63 -72 189 -3 87 0
123 13 164 22 66 93 140 156 162 59 21 143 21 186 0z m-191 -1207 c21 -18 28
-32 28 -61 0 -54 -38 -85 -105 -85 l-49 0 0 -65 c0 -51 -3 -65 -15 -65 -13 0
-15 23 -15 150 l0 150 64 0 c54 0 70 -4 92 -24z m292 4 c39 -24 62 -73 62
-132 0 -112 -108 -183 -197 -128 -49 29 -66 71 -61 148 4 59 7 67 41 98 30 28
45 34 79 34 25 0 57 -8 76 -20z m176 -96 c16 -63 30 -113 32 -111 2 2 17 46
32 98 22 74 32 94 46 94 15 0 25 -20 47 -93 15 -52 30 -96 32 -98 3 -3 17 47
33 110 23 94 31 116 46 116 23 0 23 -1 -20 -160 -31 -114 -40 -135 -56 -135
-16 0 -25 18 -51 100 l-30 99 -31 -99 c-24 -82 -33 -100 -49 -100 -17 0 -25
20 -57 135 -43 159 -43 160 -20 160 15 0 23 -22 46 -116z m521 96 c0 -12 -15
-16 -67 -18 l-68 -3 0 -39 0 -40 55 0 c48 0 55 -2 55 -20 0 -18 -7 -20 -55
-20 l-55 0 0 -50 0 -50 70 0 c63 0 70 -2 70 -20 0 -18 -7 -20 -85 -20 l-85 0
0 150 0 151 83 -3 c65 -2 82 -6 82 -18z m229 -1 c37 -29 37 -89 0 -118 l-27
-21 37 -59 c40 -65 44 -84 19 -79 -9 2 -35 33 -57 70 -30 50 -47 67 -63 68
-20 0 -22 -5 -25 -67 -2 -55 -6 -68 -20 -71 -17 -3 -18 9 -18 147 l0 151 64 0
c49 0 69 -5 90 -21z m281 1 c0 -12 -15 -16 -67 -18 l-68 -3 0 -39 0 -40 55 0
c48 0 55 -2 55 -20 0 -18 -7 -20 -55 -20 l-55 0 0 -50 0 -50 70 0 c63 0 70 -2
70 -20 0 -18 -7 -20 -85 -20 l-85 0 0 150 0 151 83 -3 c65 -2 82 -6 82 -18z
m215 5 c70 -36 96 -120 62 -198 -26 -59 -57 -78 -137 -85 l-65 -5 0 152 0 151
55 0 c31 0 69 -7 85 -15z m445 -10 c28 -27 32 -61 11 -91 -13 -18 -13 -22 5
-37 21 -18 26 -75 9 -107 -13 -24 -62 -40 -126 -40 l-54 0 0 150 0 150 65 0
c57 0 69 -3 90 -25z m140 -35 c16 -33 32 -60 35 -60 3 0 19 27 35 60 19 41 34
60 47 60 10 0 18 -2 18 -5 0 -3 -18 -41 -40 -85 -35 -69 -40 -88 -40 -146 0
-57 -2 -65 -17 -62 -15 3 -19 17 -23 73 -4 55 -13 85 -42 142 -21 40 -38 75
-38 78 0 3 8 5 18 5 13 0 28 -19 47 -60z m503 43 c-2 -13 -15 -19 -46 -21
l-42 -3 0 -130 c0 -108 -2 -129 -15 -129 -13 0 -15 21 -15 130 l0 130 -45 0
c-38 0 -45 3 -45 20 0 19 7 20 106 20 95 0 105 -2 102 -17z m198 -98 l64 -109
0 112 c0 105 1 112 20 112 19 0 20 -7 20 -151 0 -149 0 -150 -22 -147 -16 2
-37 29 -78 101 -81 140 -80 140 -80 9 0 -93 -3 -112 -15 -112 -13 0 -15 23
-15 151 0 148 0 150 21 147 16 -2 40 -34 85 -113z m325 96 c18 -15 21 -22 13
-31 -9 -9 -18 -8 -37 5 -20 13 -30 14 -47 5 -30 -16 -22 -51 19 -75 19 -11 47
-33 64 -48 25 -23 28 -33 23 -60 -7 -39 -48 -77 -82 -77 -36 0 -78 25 -92 54
-10 22 -9 27 8 36 15 8 20 8 20 -1 0 -47 82 -67 102 -25 15 35 6 50 -50 81
-71 39 -88 82 -51 129 25 32 76 35 110 7z"/>
<path d="M3370 4020 l0 -452 24 6 c102 25 189 90 224 164 l27 57 0 287 c0 274
-1 288 -21 315 -30 41 -79 61 -171 69 l-83 7 0 -453z"/>
<path d="M4398 4278 c-14 -73 -24 -135 -22 -137 4 -5 96 20 106 28 4 3 1 33
-7 66 -7 33 -19 86 -25 118 -6 31 -15 57 -19 57 -4 0 -18 -60 -33 -132z"/>
<path d="M3438 3043 l-68 -25 0 -259 c0 -295 -9 -269 92 -248 103 22 167 72
188 147 12 45 13 272 1 325 -5 22 -19 50 -32 63 -30 32 -92 31 -181 -3z"/>
<path d="M2740 2818 c-48 -25 -84 -69 -100 -127 -34 -116 -39 -762 -7 -879 20
-74 49 -102 104 -102 84 0 121 36 150 142 15 54 17 117 18 443 0 412 -6 477
-51 521 -29 30 -58 30 -114 2z"/>
<path d="M1180 1195 l0 -45 50 0 c58 0 80 24 61 66 -9 21 -18 24 -61 24 l-50
0 0 -45z"/>
<path d="M1500 1243 c-49 -18 -75 -82 -60 -148 11 -50 41 -75 90 -75 53 0 90
43 90 106 0 86 -56 141 -120 117z"/>
<path d="M2410 1200 l0 -40 45 0 c52 0 74 24 55 60 -8 15 -21 20 -55 20 l-45
0 0 -40z"/>
<path d="M2920 1130 l0 -110 30 0 c79 0 125 70 101 152 -14 46 -44 68 -93 68
l-38 0 0 -110z"/>
<path d="M3342 1203 c3 -38 3 -38 47 -38 31 0 47 5 55 18 19 29 -4 52 -58 55
l-47 3 3 -38z"/>
<path d="M3342 1073 l3 -48 46 -3 c52 -3 72 12 72 54 0 34 -17 44 -76 44 l-48
0 3 -47z"/>
</g>
</svg>
